<?xml version="1.0" encoding="UTF-8"?>
<svg id="Layer_1" xmlns="http://www.w3.org/2000/svg" version="1.1" viewBox="50 200 470 170">
  <!-- Generator: Adobe Illustrator 30.4.0, SVG Export Plug-In . SVG Version: 2.1.4 Build 226)  -->
  <defs>
    <style>
      .st0 {
        letter-spacing: .22em;
      }

      .st1 {
        letter-spacing: .22em;
      }

      .st2 {
        letter-spacing: .23em;
      }

      .st3 {
        letter-spacing: .18em;
      }

      .st4, .st5 {
        fill: #fff;
      }

      .st6, .st7 {
        fill: #0f8e45;
      }

      .st7, .st5 {
        font-family: AlQabas-Bold, 'Al Qabas';
        font-size: 34.1px;
        font-weight: 700;
      }
    </style>
  </defs>
  <text class="st7" transform="translate(89.56 352.94) scale(1 1.03)"><tspan class="st1" x="0" y="0">MARK</tspan><tspan class="st2" x="114.17" y="0">E</tspan><tspan class="st0" x="137.02" y="0">TING </tspan><tspan x="244.4" y="0"> </tspan></text>
  <text class="st5" transform="translate(346.48 353.43) scale(1 1.03)"><tspan class="st0" x="0" y="0">AGEN</tspan><tspan class="st3" x="104.66" y="0">C</tspan><tspan x="126.92" y="0">Y</tspan></text>
  <path class="st4" d="M402.41,243.3c-.02,11.87.11,23.74-.13,35.61-.13,6.05-.52,12.12-2.93,17.87-4.91,11.72-13.67,18.98-25.71,22.49-5.45,1.59-11.05,2.15-16.68,1.69-7.25-.6-13.74-3.4-19.62-7.63-9.42-6.77-14.44-16.19-16.38-27.42-1.87-10.8-.07-20.93,5.75-30.26,6.18-9.92,14.81-16.28,26.64-17.59,3.31-.37,6.71-.21,10.05-.04,1.99.1,3.69,1.18,5.01,2.71,2.98,3.43,4.22,7.52,3.79,11.93-.45,4.56-3.4,7.25-7.66,8.64-2.62.85-5.26,1.67-7.82,2.69-5.22,2.07-7.95,6.02-8.88,11.54-1.3,7.66,2.29,13.43,8.14,16.62,6.94,3.79,19.47,1.1,20.43-10.76.37-4.57.67-9.15.81-13.73.35-11.5.73-22.99.83-34.49.07-8.64-.26-17.28-.43-25.93-.04-2.2.06-2.35,2.27-2.35,6.86,0,13.71.02,20.57.03,2.16,0,2.47.28,2.47,2.48,0,6.09-.05,12.18-.07,18.26-.02,5.88-.03,11.77-.04,17.65-.13,0-.27,0-.4,0"/>
  <path class="st4" d="M84.01,335.18c0,3.73,0,7.47-.03,11.21-.02,2.59-1.33,4.39-3.88,4.46-5.36.14-10.73.02-16.09-.12-3.15-.08-3.99-2.35-4.13-4.74-.15-2.6-.2-5.21-.22-7.82-.09-13.4-.22-26.8-.2-40.21,0-5.82.31-11.65.55-17.46.18-4.33.35-8.67.79-12.98.69-6.68,3.17-12.6,7.87-17.56,6.71-7.08,14.9-11.46,24.4-13.19,12.49-2.28,24.19-.24,34.21,7.99,7.2,5.92,11.81,13.61,13.03,22.93,1.28,9.8-2.77,19.18-13.18,23.75-5.06,2.22-10.37,3.48-15.91,3.41-3.9-.05-7.72-.8-11.32-2.36-4.82-2.09-7.76-5.76-8-11.04-.22-4.92,2.01-11.48,8.36-13.47,1.7-.53,3.61-.47,5.43-.55,1.63-.07,3.27.13,4.9.05,1.69-.08,3.57-1.87,3.87-3.48.42-2.23-.33-4.05-2.24-5.09-4.16-2.26-8.55-2.76-13.03-1.2-9.1,3.18-14.84,9.43-16.43,19.03-.98,5.89.06,11.58,3.39,16.58,3.34,5.03,8.44,7.63,14.21,8.88,4.79,1.03,9.64.73,14.48.16,2.58-.3,5.16-.58,7.75-.82,2.07-.19,3.74.64,4.8,2.4,1.03,1.7.66,3.48-.28,5.09-1.47,2.52-3.79,4.12-6.28,5.48-4.4,2.39-9.19,3.46-14.11,3.69-5.61.26-11.23.19-16.84.23-3.74.03-5.54,1.78-5.57,5.56-.03,3.73-.02,7.47-.02,11.21h-.26Z"/>
  <path class="st4" d="M202.98,300.8c.16-5.68.34-11.35.46-17.03.13-6.1-1.64-11.51-5.51-16.32-2.79-3.47-6.4-4.11-10.43-3.75-1.42.13-2.82.46-4.21.8-3.39.85-5.82,2.88-6.71,6.28-.81,3.09-1.56,6.26-1.83,9.43-.49,5.78,2.1,9.53,7.82,12.23,3.05,1.44,6.02,3.05,9.09,4.45,5.32,2.42,6.37,6.07,5.92,11.56-.28,3.35-1.5,6.43-4.15,8.8-2.17,1.94-4.68,2.95-7.53,2.99-15.96.21-27.04-7.53-34.2-21.36-3.94-7.61-5.05-15.85-4.24-24.29.9-9.36,4-17.9,10.29-25.1,6.12-7.01,13.79-11.1,23.04-12.14,7.92-.89,15.73-.35,23.24,2.44,14.11,5.24,23.03,14.95,24.36,30.25.71,8.1.25,16.32.19,24.48-.03,3.67-.42,7.34-.6,11.02-.22,4.7-.41,9.4-.56,14.11-.04,1.11-.42,1.55-1.56,1.51-7.21-.23-14.42-.44-21.63-.59-1.5-.03-1.66-.88-1.63-1.99.15-5.93.32-11.87.49-17.8-.03,0-.06,0-.09,0"/>
  <path class="st4" d="M466.51,297.74c.01-6.96.11-13.91.02-20.87-.1-8.04-8-14.55-16.32-13.59-7.7.89-12.03,5.13-13.24,12.8-.54,3.48-.68,6.91.7,10.22,1.59,3.83,4.58,6.21,8.37,7.63,2.34.88,4.76,1.55,7.14,2.33,4.42,1.44,7.96,3.98,8.54,8.86.93,7.86-2.9,15.68-13.08,15.7-14.2.02-24.94-6.34-32.2-18.59-4.97-8.38-6.78-17.47-6.11-27.08.63-9.05,3.52-17.31,9.5-24.26,6.63-7.7,15.13-11.97,25.17-13.28,7.74-1.01,15.32-.38,22.57,2.54,12.93,5.2,20.51,14.99,23.52,28.39.7,3.15.8,6.48.85,9.73.21,13.14.3,26.28.42,39.43.02,2.58-.67,3.27-3.26,3.26-6.5-.03-13-.06-19.49-.1-2.45-.01-2.86-.44-2.85-2.84.01-6.76.02-13.51.04-20.26-.09,0-.19,0-.28,0"/>
  <path class="st4" d="M263.57,296.27c-.01,6.85-.02,13.71-.04,20.57,0,2.73-.74,3.48-3.45,3.47-6.85-.04-13.71-.09-20.56-.16-1.83-.02-2.22-.35-2.14-2.14.31-6.57.7-13.14,1.04-19.71.11-2.19.13-4.39.25-6.58.42-7.43.71-14.88,1.37-22.28.45-5.12,1.15-10.27,3.47-14.98,3.62-7.35,9.74-11.8,17.28-14.5,5.65-2.03,11.52-2.82,17.48-2.41,14.77,1.02,28.85,10.74,32.87,25.31.99,3.6,1.57,7.41,1.75,11.14.39,8.16.47,16.33.52,24.5.02,3.61-.07,7.27-.57,10.84-1.71,12.25-14.73,13.97-21.22,9.04-2.36-1.79-3.18-4.36-3.52-7.07-.42-3.33-.76-6.7-.8-10.05-.1-8.64.02-17.29,0-25.94,0-2.62-.29-5.22-1.7-7.53-3.64-5.95-12.5-6.85-18.03-2.15-3.21,2.73-3.87,6.39-3.93,10.22-.11,6.8-.05,13.61-.07,20.41"/>
  <path class="st6" d="M67.33,208.57c8.05.32,13.86,4.36,17.78,11.42.69,1.24-.1,1.41-.98,1.78-3.57,1.48-7.24,2.8-10.66,4.59-6.4,3.34-11.46,8.3-15.79,14.03-1.01,1.34-2.03,2.69-3.07,4.01-.95,1.22-1.55,1.3-2.61.2-7.12-7.39-9.23-15.95-3.43-25.62,4.21-7.03,10.58-10.18,18.76-10.42"/>
  <path class="st6" d="M133.28,208.81c8.87.06,16.99,6.38,18.68,14.95,1.11,5.63.61,11.09-2.83,15.96-2.76,3.91-3.25,3.91-6.03.16-5.13-6.91-11.14-12.81-19.05-16.46-2.03-.94-4.2-1.57-6.32-2.29-1.74-.59-1.91-.88-1.13-2.5,2.31-4.8,6.29-7.55,11.27-8.94,1.75-.48,3.6-.6,5.41-.88"/>
</svg>