<?xml version="1.0" encoding="UTF-8"?>
<svg id="Layer_1" xmlns="http://www.w3.org/2000/svg" version="1.1" viewBox="200 135 200 295">
  <!-- Generator: Adobe Illustrator 30.4.0, SVG Export Plug-In . SVG Version: 2.1.4 Build 226)  -->
  <defs>
    <style>
      .st0 {
        fill: #fff;
      }

      .st1 {
        fill: #0b8d45;
      }
    </style>
  </defs>
  <path class="st0" d="M260.12,391.57c0,7.3.03,14.6,0,21.9-.03,5.08-2.59,8.59-7.57,8.73-10.48.3-20.97.09-31.45-.17-6.15-.15-7.82-4.58-8.09-9.26-.3-5.09-.42-10.19-.46-15.28-.23-26.2-.53-52.4-.54-78.59,0-11.38.55-22.76,1.02-34.14.34-8.47.66-16.95,1.51-25.38,1.32-13.07,6.16-24.64,15.32-34.36,13.09-13.87,29.08-22.46,47.65-25.88,24.41-4.5,47.28-.56,66.9,15.49,14.1,11.54,23.14,26.56,25.56,44.77,2.54,19.14-5.34,37.5-25.68,46.47-9.87,4.36-20.26,6.83-31.09,6.72-7.63-.08-15.09-1.53-22.14-4.58-9.44-4.07-15.2-11.23-15.68-21.54-.45-9.62,3.89-22.45,16.29-26.37,3.32-1.05,7.05-.94,10.6-1.1,3.19-.14,6.4.24,9.58.08,3.31-.17,6.97-3.67,7.55-6.81.81-4.37-.67-7.92-4.4-9.93-8.14-4.39-16.73-5.37-25.48-2.3-17.78,6.25-28.96,18.48-32.05,37.26-1.9,11.5.16,22.63,6.68,32.39,6.56,9.83,16.53,14.89,27.81,17.3,9.37,2,18.85,1.39,28.3.27,5.04-.6,10.09-1.16,15.15-1.63,4.05-.38,7.32,1.22,9.41,4.67,2.01,3.33,1.3,6.8-.53,9.95-2.86,4.93-7.4,8.08-12.26,10.73-8.58,4.68-17.95,6.8-27.57,7.27-10.95.54-21.94.41-32.92.51-7.31.06-10.82,3.5-10.86,10.89-.04,7.3,0,14.6,0,21.9-.17,0-.34,0-.5,0Z"/>
  <path class="st1" d="M227.05,144.14c15.75.6,27.12,8.48,34.81,22.26,1.35,2.41-.19,2.76-1.91,3.48-6.98,2.9-14.14,5.51-20.82,9.01-12.5,6.55-22.38,16.26-30.81,27.49-1.98,2.63-3.96,5.26-5.99,7.86-1.86,2.38-3.03,2.55-5.1.41-13.94-14.42-18.1-31.15-6.81-50.07,8.21-13.76,20.64-19.94,36.64-20.44Z"/>
  <path class="st1" d="M355.97,144.36c17.35.09,33.24,12.42,36.56,29.15,2.19,11,1.22,21.68-5.47,31.2-5.38,7.65-6.33,7.65-11.78.34-10.05-13.48-21.82-24.99-37.3-32.11-3.97-1.82-8.21-3.06-12.37-4.45-3.4-1.14-3.74-1.71-2.22-4.87,4.51-9.38,12.27-14.79,22.01-17.51,3.42-.96,7.04-1.18,10.57-1.74Z"/>
</svg>